# xmcd
#
# Track frame offsets:
#	150
#	14052
#	27105
#	42288
#	58176
#	73598
#	85211
#	99723
#	112655
#	130172
#	144745
#	159807
#	176212
#	194999
#	209158
#	231755
#
# Disc length: 3105 seconds
#
# Revision: 1
# Processed by: cddbd v1.5.2PL0 Copyright (c) Steve Scherf et al.
# Submitted via: audiograbber 1.83.01
#
DISCID=ec0c1f10
DTITLE=Marty Stuart - Chartbuster Country Artist Series CDG90275
DYEAR=2005
DGENRE=Karaoke
TTITLE0=Burn Me Down
TTITLE1=Hillbilly Rock
TTITLE2=Red, Red Wine And Cheatin' Songs
TTITLE3=Now That's Country
TTITLE4=Tempted
TTITLE5=Till I Found You
TTITLE6=Honky Tonkin's What I Do Best
TTITLE7=The Whiskey Ain't Workin'
TTITLE8=Love And Luck
TTITLE9=Hey Baby
TTITLE10=Little Things
TTITLE11=This One's Gonna Hurt You
TTITLE12=You Can't Stop Love
TTITLE13=If There Ain't There Oughta Be
TTITLE14=Too Much Month
TTITLE15=
EXTD=
EXTT0=
EXTT1=
EXTT2=
EXTT3=
EXTT4=
EXTT5=
EXTT6=
EXTT7=
EXTT8=
EXTT9=
EXTT10=
EXTT11=
EXTT12=
EXTT13=
EXTT14=
EXTT15=
PLAYORDER=
